<?xml version="1.0" standalone="no"?>
<!DOCTYPE svg PUBLIC "-//W3C//DTD SVG 20010904//EN"
 "http://www.w3.org/TR/2001/REC-SVG-20010904/DTD/svg10.dtd">
<svg version="1.0" xmlns="http://www.w3.org/2000/svg"
 width="260.000000pt" height="260.000000pt" viewBox="0 0 260.000000 260.000000"
 preserveAspectRatio="xMidYMid meet">
<metadata>
Created by potrace 1.11, written by Peter Selinger 2001-2013
</metadata>
<g transform="translate(0.000000,260.000000) scale(0.100000,-0.100000)"
fill="#000000" stroke="none">
<path d="M1869 2323 c-13 -16 -12 -17 4 -4 9 7 17 15 17 17 0 8 -8 3 -21 -13z"/>
<path d="M2042 2324 c10 -10 20 -16 22 -13 3 3 -5 11 -17 18 -21 13 -21 12 -5
-5z"/>
<path d="M1690 2321 c0 -6 4 -13 10 -16 6 -3 7 1 4 9 -7 18 -14 21 -14 7z"/>
<path d="M1825 2320 c-3 -6 1 -7 9 -4 18 7 21 14 7 14 -6 0 -13 -4 -16 -10z"/>
<path d="M1992 2307 c-8 -10 -6 -13 11 -14 12 0 16 1 9 4 -6 3 -10 9 -6 14 8
14 -2 11 -14 -4z"/>
<path d="M1510 2300 c0 -5 5 -10 11 -10 5 0 7 5 4 10 -3 6 -8 10 -11 10 -2 0
-4 -4 -4 -10z"/>
<path d="M1785 2299 c4 -11 -9 -14 -62 -15 -39 0 -71 4 -75 10 -5 7 -8 6 -8
-3 0 -11 -3 -11 -15 -1 -13 11 -14 10 -10 -1 7 -19 -45 -24 -57 -7 -5 9 -8 8
-8 -6 0 -12 -5 -16 -15 -12 -8 3 -15 0 -15 -7 0 -8 -4 -6 -10 3 -5 8 -10 10
-10 3 0 -6 -11 -10 -25 -9 -15 2 -22 -1 -18 -7 4 -6 0 -8 -9 -4 -9 3 -20 1
-24 -3 -5 -5 -19 -11 -31 -13 -13 -2 -26 -6 -29 -10 -4 -4 -13 -2 -21 5 -11 9
-12 7 -7 -8 4 -10 4 -16 -1 -12 -4 4 -15 2 -23 -5 -12 -9 -16 -9 -19 1 -3 6
-9 12 -14 12 -4 0 -5 -8 -2 -17 5 -12 2 -15 -10 -10 -9 3 -17 3 -17 -2 0 -8
-38 -24 -52 -22 -5 1 -8 -3 -8 -8 0 -5 -7 -12 -16 -15 -8 -3 -13 -2 -9 3 6 11
-22 8 -32 -4 -4 -4 -2 -5 5 -1 6 4 12 3 12 -3 0 -10 -38 -27 -52 -23 -5 1 -8
-2 -8 -7 0 -4 -21 -19 -47 -32 -27 -13 -51 -27 -54 -32 -16 -22 -73 -55 -87
-50 -13 4 -14 3 -3 -5 10 -7 7 -13 -17 -28 -17 -10 -29 -21 -26 -26 3 -4 0 -8
-6 -8 -6 0 -21 -11 -34 -25 -26 -28 -41 -33 -33 -10 4 8 2 17 -2 19 -5 3 -8
-5 -8 -17 -1 -41 -3 -48 -13 -42 -6 3 -10 -1 -10 -9 0 -10 -9 -16 -22 -16 -17
0 -19 -3 -10 -9 11 -6 8 -14 -14 -34 -21 -20 -30 -23 -37 -14 -5 7 -6 4 -2 -9
4 -16 -1 -28 -17 -41 -13 -10 -24 -25 -26 -33 -5 -21 -23 -41 -32 -35 -5 3
-12 0 -16 -6 -4 -8 -3 -9 4 -5 7 4 12 2 12 -3 0 -6 -5 -11 -11 -11 -5 0 -7 -5
-3 -12 5 -7 2 -9 -9 -5 -12 4 -14 2 -10 -10 4 -10 2 -14 -4 -10 -6 4 -16 0
-23 -8 -14 -17 -34 -10 -24 8 4 7 3 8 -2 4 -5 -5 -10 -13 -10 -18 -1 -5 -2
-13 -3 -18 -1 -8 -18 -15 -44 -19 -4 -1 -15 -8 -23 -17 -9 -8 -19 -13 -24 -10
-4 3 -10 -2 -14 -10 -3 -8 -12 -12 -21 -9 -8 3 -15 2 -15 -3 0 -5 -14 -17 -31
-27 -22 -13 -29 -14 -23 -5 12 20 14 40 3 33 -5 -3 -7 -9 -4 -13 5 -10 -38
-52 -56 -55 -8 -1 -20 -5 -27 -9 -6 -5 -17 -5 -24 -1 -6 4 -8 3 -5 -3 8 -13
-79 -54 -99 -46 -11 4 -15 2 -11 -4 8 -12 -47 -35 -59 -25 -4 4 -4 1 0 -5 4
-8 2 -13 -5 -13 -8 0 -10 -24 -5 -90 24 -341 163 -636 409 -869 79 -74 157
-129 178 -124 11 3 19 0 19 -6 0 -7 -5 -9 -12 -5 -7 4 -8 3 -4 -5 4 -6 11 -9
16 -6 5 3 11 1 15 -5 4 -6 10 -8 15 -5 4 3 11 -2 14 -11 4 -9 9 -14 13 -11 3
4 0 13 -7 22 -7 8 -8 15 -2 15 5 0 16 -10 24 -22 11 -17 16 -19 23 -8 5 9 4
11 -3 6 -16 -9 -15 7 0 22 17 17 29 15 22 -3 -4 -8 -1 -15 6 -15 6 0 8 5 4 11
-4 8 1 9 17 5 l24 -7 -23 14 c-12 7 -20 15 -18 18 3 3 -3 5 -14 5 -10 0 -17
-3 -15 -6 2 -3 -6 -6 -18 -7 -12 -1 -31 -3 -42 -6 -15 -4 -21 0 -22 14 -1 10
2 21 8 24 5 3 6 0 3 -8 -3 -8 -1 -18 5 -22 7 -3 11 2 11 14 0 12 4 21 10 21 5
0 7 -8 4 -17 -4 -14 -1 -13 14 4 16 18 21 20 26 8 3 -8 11 -15 17 -15 8 0 7 5
-2 18 -7 9 -9 14 -5 10 5 -4 16 -2 25 5 14 10 14 10 3 -5 -12 -15 -11 -17 7
-15 13 1 20 6 17 14 -3 7 -1 15 5 18 5 4 9 3 8 -2 -3 -20 2 -34 11 -28 5 3 7
12 4 19 -3 8 -1 17 5 21 10 6 16 -8 12 -28 -1 -5 4 -7 11 -4 7 2 12 13 10 23
-3 18 -3 18 13 -1 16 -20 16 -19 11 5 -3 14 -3 19 0 12 4 -9 10 -8 22 6 10 9
14 13 10 8 -19 -24 -6 -27 19 -5 14 13 23 18 19 11 -5 -8 -1 -11 13 -9 28 4
39 17 15 18 -18 0 -18 1 1 8 11 5 25 6 30 3 23 -14 36 -10 30 9 -4 11 -2 19 5
19 6 0 8 -4 5 -10 -3 -5 1 -10 9 -10 9 0 15 3 15 8 -3 19 2 32 12 32 8 0 7 -6
-2 -17 -12 -15 -12 -16 4 -10 11 4 16 3 12 -3 -3 -6 -2 -10 3 -10 6 0 13 7 16
16 8 22 8 26 -4 19 -6 -4 -7 1 -3 11 6 16 8 15 16 -4 11 -24 30 -30 25 -8 -2
8 2 15 7 15 6 0 9 -6 8 -13 -2 -6 6 -12 17 -12 24 0 25 4 3 30 -18 21 -18 21
3 3 11 -9 24 -14 28 -10 4 4 4 -1 0 -12 -7 -18 -6 -18 9 -6 22 17 32 8 18 -16
-8 -14 -10 -14 -11 -3 0 13 -1 13 -10 0 -9 -13 -10 -13 -10 0 -1 11 -3 11 -11
-3 -14 -24 -4 -34 16 -17 9 8 15 9 15 2 0 -6 -8 -15 -17 -21 -16 -9 -16 -10 4
-8 12 0 20 4 17 8 -2 4 3 10 12 13 12 4 15 2 10 -9 -3 -8 -1 -15 4 -15 6 0 10
7 10 17 0 15 2 15 18 0 14 -13 20 -13 35 -3 9 7 17 17 17 21 0 5 -9 0 -19 -9
-12 -11 -21 -14 -26 -7 -3 6 -2 11 4 11 5 0 17 7 25 16 9 9 16 11 16 4 0 -6 5
-8 12 -4 7 4 8 3 4 -5 -4 -6 -2 -19 6 -28 11 -14 11 -16 -4 -11 -9 4 -24 1
-33 -6 -15 -11 -14 -13 7 -31 l23 -20 -19 22 c-18 21 -18 22 0 21 11 0 25 1
33 3 7 2 16 -2 19 -10 2 -8 0 -11 -6 -7 -6 3 -13 2 -16 -3 -4 -5 2 -8 11 -7
10 2 21 -2 25 -8 6 -8 8 -8 8 1 0 6 -11 25 -25 41 -23 28 -24 31 -7 43 15 13
16 12 4 -3 -12 -15 -11 -17 7 -15 12 1 21 5 21 10 0 4 6 5 13 0 13 -8 29 -12
67 -16 14 -2 31 -6 38 -10 6 -5 16 -6 21 -2 5 3 12 1 16 -5 4 -6 10 -8 15 -5
5 3 12 0 16 -6 4 -8 9 -7 16 2 8 11 9 10 5 -2 -3 -9 0 -22 6 -28 8 -8 8 -11
-1 -11 -7 0 -12 5 -12 11 0 5 -5 7 -12 3 -7 -4 -8 -3 -4 4 4 7 -1 10 -14 7
-11 -2 -18 0 -15 5 3 4 -6 7 -20 6 -13 -2 -22 0 -20 5 3 4 1 10 -5 14 -5 3
-10 -1 -10 -10 0 -9 -5 -13 -10 -10 -6 4 -8 10 -6 14 3 4 -8 7 -24 6 -16 -1
-27 1 -25 5 2 3 -9 6 -24 6 l-29 0 21 -32 c12 -18 24 -29 27 -26 3 4 15 8 28
9 20 3 21 1 12 -20 -9 -19 -9 -20 2 -6 7 9 19 14 25 12 7 -3 16 2 19 11 3 9
10 16 15 16 5 0 4 -11 -3 -25 -6 -13 -14 -22 -18 -20 -4 2 -7 -2 -7 -10 0 -19
24 0 32 25 6 20 19 20 53 1 18 -10 26 -10 38 0 9 7 14 8 14 1 0 -6 -4 -14 -10
-17 -5 -3 -10 -12 -10 -18 0 -7 5 -4 11 6 5 9 17 17 25 17 8 0 13 -4 10 -9 -3
-4 7 -13 22 -20 25 -10 26 -10 8 4 -11 8 -16 18 -12 22 4 4 20 -6 34 -22 15
-17 24 -26 20 -21 -13 17 -9 29 6 17 11 -9 15 -9 19 1 4 10 7 11 18 1 22 -22
49 -16 45 10 -2 15 -10 22 -25 21 -11 -1 -21 3 -21 8 0 5 -5 6 -11 2 -8 -4 -7
-9 2 -16 10 -7 8 -8 -6 -2 -11 4 -30 7 -42 7 -12 -1 -21 4 -20 9 1 6 -5 13
-13 15 -13 4 -13 3 0 -6 11 -8 8 -9 -14 -7 -15 2 -31 9 -36 16 -6 10 -9 9 -13
-1 -4 -10 -6 -9 -6 3 -1 17 19 20 44 7 6 -3 20 -4 32 -3 12 0 20 -3 17 -7 -3
-5 2 -9 10 -9 9 0 16 5 16 11 0 8 4 8 13 2 6 -6 22 -9 35 -8 13 1 25 -2 28 -7
3 -4 10 -5 16 -2 7 5 8 2 3 -6 -5 -8 -3 -11 6 -8 8 3 13 11 11 17 -2 9 3 9 18
1 11 -6 20 -7 20 -3 0 4 5 0 11 -10 6 -10 8 -21 5 -24 -3 -4 -6 -1 -6 5 0 7
-5 12 -11 12 -5 0 -7 -5 -3 -12 4 -6 3 -8 -4 -4 -6 3 -14 1 -18 -5 -4 -8 -9
-7 -16 2 -8 11 -9 10 -5 -2 3 -9 0 -22 -6 -29 -8 -8 -5 -8 11 1 12 8 22 16 22
20 0 3 7 6 15 6 8 0 15 -4 15 -9 0 -4 -4 -8 -10 -8 -5 0 -10 -4 -10 -8 0 -12
32 -11 47 0 7 6 15 3 23 -9 9 -14 10 -15 6 -1 -2 9 -2 19 2 22 10 11 11 36 0
36 -6 0 -8 -6 -5 -13 3 -8 -1 -14 -8 -14 -7 0 -11 6 -8 14 3 7 0 13 -6 13 -6
0 -11 5 -11 11 0 5 6 7 12 3 19 -12 48 -12 48 0 0 6 5 5 12 -2 9 -9 9 -15 -1
-24 -11 -11 -12 -10 -6 2 5 8 4 12 0 7 -12 -11 -13 -47 -2 -54 6 -4 7 -1 2 7
-6 10 -4 12 10 6 15 -5 16 -4 5 9 -12 14 -10 15 15 9 20 -5 26 -4 21 5 -4 6
-12 9 -17 6 -5 -3 -6 1 -3 9 3 9 10 16 16 16 5 0 6 -5 2 -11 -4 -8 1 -9 17 -4
73 23 240 186 335 328 153 227 226 477 219 752 -1 77 -6 154 -9 170 -4 17 -11
55 -17 85 -28 137 -99 304 -185 436 -67 102 -171 213 -204 219 -79 15 -89 18
-85 26 3 4 -10 6 -30 5 -19 -2 -35 -1 -35 3 0 3 -15 6 -32 5 -18 0 -37 2 -43
5 -5 3 -26 6 -46 7 -20 0 -41 4 -47 8 -7 4 -12 2 -12 -5 0 -8 -3 -9 -13 0 -8
6 -17 8 -20 4 -4 -3 -13 0 -22 7 -13 11 -15 10 -10 -1z m-491 -1934 c3 3 2 0
-3 -6 -14 -17 -71 -20 -64 -3 6 17 15 18 32 2 12 -11 13 -10 7 6 -5 15 -4 17
7 8 8 -7 17 -10 21 -7z m121 -55 c4 -6 10 -8 15 -5 5 3 20 0 32 -7 13 -7 26
-11 31 -10 4 1 7 -2 7 -8 0 -13 -17 -13 -25 -1 -3 6 -18 8 -33 6 -20 -2 -32 3
-40 16 -7 10 -8 19 -3 19 6 0 13 -5 16 -10z m325 -70 c12 -7 10 -9 -8 -7 -12
0 -22 5 -22 9 0 11 12 10 30 -2z m67 -7 c0 -8 -7 -11 -14 -8 -8 3 -17 5 -19 5
-3 0 -3 4 0 8 8 14 33 10 33 -5z m109 -10 c-2 -9 -8 -19 -15 -21 -10 -3 -10 0
-2 17 14 25 20 27 17 4z m-1216 -9 c0 -8 -19 -13 -24 -6 -3 5 1 9 9 9 8 0 15
-2 15 -3z"/>
<path d="M2030 2297 c0 -2 6 -10 14 -16 11 -9 16 -9 22 1 4 7 4 10 -1 6 -4 -4
-14 -3 -22 3 -7 6 -13 9 -13 6z"/>
<path d="M2119 2273 c-13 -16 -12 -17 4 -4 9 7 17 15 17 17 0 8 -8 3 -21 -13z"/>
<path d="M2135 2260 c-3 -5 -1 -10 4 -10 6 0 11 5 11 10 0 6 -2 10 -4 10 -3 0
-8 -4 -11 -10z"/>
<path d="M930 2019 c0 -5 5 -7 10 -4 6 3 10 8 10 11 0 2 -4 4 -10 4 -5 0 -10
-5 -10 -11z"/>
<path d="M846 1982 c-3 -5 1 -9 9 -9 8 0 12 4 9 9 -3 4 -7 8 -9 8 -2 0 -6 -4
-9 -8z"/>
<path d="M807 1939 c7 -7 15 -10 18 -7 3 3 -2 9 -12 12 -14 6 -15 5 -6 -5z"/>
<path d="M226 1442 c-2 -4 4 -8 14 -8 10 0 16 4 14 8 -3 4 -9 8 -14 8 -5 0
-11 -4 -14 -8z"/>
<path d="M96 1377 c3 -10 9 -15 12 -12 3 3 0 11 -7 18 -10 9 -11 8 -5 -6z"/>
<path d="M19 1353 c-13 -17 -13 -17 6 -3 11 8 22 16 24 17 2 2 0 3 -6 3 -6 0
-17 -8 -24 -17z"/>
<path d="M1097 356 c-5 -11 -13 -16 -23 -12 -8 3 -25 0 -37 -6 -28 -16 -39
-17 -57 -4 -8 6 -12 6 -8 2 10 -12 -11 -37 -26 -30 -6 3 -3 -1 7 -9 17 -14 17
-15 -7 -13 -13 0 -22 4 -20 8 2 4 0 9 -5 12 -5 4 -17 -4 -25 -16 -11 -15 -16
-18 -16 -8 0 13 -2 13 -10 0 -5 -8 -14 -16 -20 -16 -21 -3 -22 -4 -10 -19 7
-8 8 -15 2 -15 -5 0 -15 7 -22 15 -8 9 -17 12 -24 6 -6 -4 -19 -7 -28 -6 -24
4 -23 -7 2 -22 12 -8 21 -9 25 -3 4 6 12 7 18 3 16 -10 47 -11 42 -2 -3 4 2
10 11 13 11 4 15 2 11 -7 -3 -8 1 -14 9 -14 12 0 12 4 -1 23 -20 31 -19 37 4
22 11 -7 18 -16 15 -20 -3 -4 2 -5 12 -1 14 5 14 7 -4 17 -16 8 -19 15 -12 26
5 8 10 10 10 5 0 -6 9 -16 21 -23 12 -8 18 -9 14 -3 -9 15 8 14 24 -2 10 -10
11 -8 5 7 -6 15 -4 17 7 11 11 -6 12 -5 2 6 -20 20 -15 31 6 17 11 -7 17 -16
14 -22 -3 -5 -1 -6 5 -2 5 3 13 0 15 -6 4 -9 6 -10 6 -1 1 6 -3 15 -9 18 -5 3
-10 10 -10 16 0 5 9 4 19 -3 11 -7 17 -16 15 -20 -9 -15 3 -8 17 9 8 9 9 14 4
11 -6 -4 -17 -3 -25 3 -13 7 -13 9 0 10 8 0 23 2 33 4 9 2 17 0 17 -5 0 -4 8
-11 17 -14 16 -6 16 -6 0 12 -25 28 -21 35 10 15 15 -10 24 -12 20 -5 -5 6 -4
12 2 12 10 0 15 -14 12 -32 0 -5 4 -8 9 -8 13 0 13 6 0 30 -7 13 -7 21 0 25 5
3 10 10 10 16 0 10 -28 8 -47 -4 -6 -4 -13 -2 -15 5 -3 7 -7 5 -11 -6z m57 -8
c-3 -5 -9 -6 -14 -3 -4 3 -10 -1 -13 -7 -3 -10 -8 -10 -18 1 -8 8 -9 11 -2 7
6 -3 14 -3 17 2 3 5 12 9 20 9 8 0 13 -4 10 -9z m-78 -20 c4 -7 3 -8 -4 -4 -6
4 -22 2 -34 -4 -22 -11 -22 -10 -4 4 24 19 32 20 42 4z m-66 -14 c0 -8 -19
-13 -24 -6 -3 5 1 9 9 9 8 0 15 -2 15 -3z m-145 -72 c-3 -3 -11 0 -18 7 -9 10
-8 11 6 5 10 -3 15 -9 12 -12z m-44 -9 c11 -15 11 -16 -1 -6 -9 9 -17 9 -26 2
-8 -7 -14 -6 -20 2 -4 7 -3 9 4 5 6 -3 13 -2 17 4 8 13 10 13 26 -7z"/>
<path d="M1256 301 c-3 -4 4 -17 17 -27 22 -19 22 -19 4 2 -9 11 -14 24 -10
27 3 4 4 7 0 7 -3 0 -8 -4 -11 -9z"/>
<path d="M1095 271 c-3 -5 -2 -12 3 -15 5 -3 9 1 9 9 0 17 -3 19 -12 6z"/>
<path d="M1225 260 c-3 -6 1 -7 9 -4 18 7 21 14 7 14 -6 0 -13 -4 -16 -10z"/>
<path d="M1539 250 c-7 -5 -10 -13 -5 -17 5 -4 11 -3 13 4 2 7 11 9 19 6 8 -3
14 -3 14 0 0 10 -27 15 -41 7z"/>
<path d="M1845 250 c-3 -5 -2 -10 4 -10 5 0 13 5 16 10 3 6 2 10 -4 10 -5 0
-13 -4 -16 -10z"/>
<path d="M1296 233 c-6 -14 -5 -15 5 -6 7 7 10 15 7 18 -3 3 -9 -2 -12 -12z"/>
<path d="M960 220 c-9 -6 -10 -10 -3 -10 6 0 15 5 18 10 8 12 4 12 -15 0z"/>
<path d="M1450 219 c0 -5 5 -7 10 -4 6 3 10 8 10 11 0 2 -4 4 -10 4 -5 0 -10
-5 -10 -11z"/>
<path d="M790 200 c-11 -7 -11 -10 -2 -10 7 0 10 -4 7 -10 -4 -6 1 -7 11 -3
11 4 13 8 6 11 -7 2 -10 8 -6 13 7 11 3 11 -16 -1z"/>
<path d="M1755 200 c-3 -5 -1 -10 4 -10 6 0 11 5 11 10 0 6 -2 10 -4 10 -3 0
-8 -4 -11 -10z"/>
<path d="M1835 180 c-3 -6 1 -7 9 -4 18 7 21 14 7 14 -6 0 -13 -4 -16 -10z"/>
<path d="M1917 183 c-10 -9 -9 -23 1 -23 5 0 9 7 9 15 0 17 -1 18 -10 8z"/>
</g>
</svg>
